<svg width="254" height="254" viewBox="0 0 254 254" fill="none" xmlns="http://www.w3.org/2000/svg">
<rect width="254" height="254" fill="#FBF2E2"/>
<g clip-path="url(#clip0_120_24)">
<path fill-rule="evenodd" clip-rule="evenodd" d="M117.636 146.091C117.636 146.091 139.787 161.267 166.045 146.091C166.045 146.091 153.325 168.523 140.321 166.823C127.317 165.123 116.902 148.206 116.902 148.206L117.636 146.091Z" fill="#FBAD44" stroke="#C36E1A" stroke-width="2" stroke-miterlimit="1.5" stroke-linecap="round" stroke-linejoin="round"/>
<path fill-rule="evenodd" clip-rule="evenodd" d="M121.213 134.579C121.377 133.623 141.852 119.486 160.697 135.458C160.697 135.458 163.534 145.806 165.219 146.091C165.219 146.091 138.613 160.535 118.222 146.091C118.222 146.091 119.949 141.905 121.213 134.579Z" fill="#FBAD44" stroke="#C36E1A" stroke-width="2" stroke-miterlimit="1.5" stroke-linecap="round" stroke-linejoin="round"/>
<ellipse cx="58.5" cy="154" rx="16.5" ry="13" fill="#FBBD7E"/>
<ellipse cx="207.5" cy="158.5" rx="14.5" ry="10.5" fill="#FBBD7E"/>
<path fill-rule="evenodd" clip-rule="evenodd" d="M80.1613 86.5359C102.833 86.5359 121.24 104.921 121.24 127.568C121.24 150.213 102.833 168.599 80.1613 168.599C57.49 168.599 39.0835 150.213 39.0835 127.568C39.0835 104.921 57.49 86.5359 80.1613 86.5359ZM79.6631 92.9545C98.7882 92.9545 114.316 108.464 114.316 127.568C114.316 146.671 98.7882 162.181 79.6631 162.181C60.5371 162.181 45.0097 146.671 45.0097 127.568C45.0097 108.464 60.5371 92.9545 79.6631 92.9545Z" fill="#254136" stroke="black" stroke-width="2" stroke-miterlimit="1.5" stroke-linecap="round" stroke-linejoin="round"/>
<path fill-rule="evenodd" clip-rule="evenodd" d="M199.656 92.9546C218.231 92.9546 233.311 108.017 233.311 126.571C233.311 145.124 218.231 160.188 199.656 160.188C181.081 160.188 166.001 145.124 166.001 126.571C166.001 108.017 181.081 92.9546 199.656 92.9546ZM199.482 87.5524C220.889 87.5524 238.268 104.912 238.268 126.293C238.268 147.676 220.889 165.035 199.482 165.035C178.075 165.035 160.696 147.676 160.696 126.293C160.696 104.912 178.075 87.5524 199.482 87.5524Z" fill="#254136" stroke="black" stroke-width="2" stroke-miterlimit="1.5" stroke-linecap="round" stroke-linejoin="round"/>
<path fill-rule="evenodd" clip-rule="evenodd" d="M39.0835 120.292L28.6565 117.781L26.0038 123.726L39.0835 129.908V120.292Z" fill="#254136" stroke="black" stroke-width="2" stroke-miterlimit="1.5" stroke-linecap="round" stroke-linejoin="round"/>
<path fill-rule="evenodd" clip-rule="evenodd" d="M238.268 127.568L244.034 124.567L243.649 118.853L238.697 119.478L238.268 127.568Z" fill="#254136" stroke="black" stroke-width="2" stroke-miterlimit="1.5" stroke-linecap="round" stroke-linejoin="round"/>
<path fill-rule="evenodd" clip-rule="evenodd" d="M121.213 126.081C121.213 126.081 140.221 113.407 160.697 126.571L160.696 119.987C159.178 115.963 128.532 110.833 121.397 119.987L121.213 126.081Z" fill="#254136" stroke="black" stroke-width="2" stroke-miterlimit="1.5" stroke-linecap="round" stroke-linejoin="round"/>
<path fill-rule="evenodd" clip-rule="evenodd" d="M85.8726 109.009C94.7283 109.009 101.917 117.276 101.917 127.458C101.917 137.641 94.7283 145.908 85.8726 145.908C77.0169 145.908 69.8273 137.641 69.8273 127.458C69.8273 117.276 77.0169 109.009 85.8726 109.009ZM90.7778 116.968C93.4853 116.968 95.6831 119.119 95.6831 121.77C95.6831 124.42 93.4853 126.571 90.7778 126.571C88.0704 126.571 85.8726 124.42 85.8726 121.77C85.8726 119.119 88.0704 116.968 90.7778 116.968Z" fill="black" stroke="black" stroke-width="2" stroke-miterlimit="1.5" stroke-linecap="round" stroke-linejoin="round"/>
<path fill-rule="evenodd" clip-rule="evenodd" d="M192.594 109.193C201.45 109.193 208.64 117.459 208.64 127.642C208.64 137.825 201.45 146.091 192.594 146.091C183.739 146.091 176.55 137.825 176.55 127.642C176.55 117.459 183.739 109.193 192.594 109.193ZM196.205 117.197C198.779 117.197 200.87 119.349 200.87 121.998C200.87 124.649 198.779 126.8 196.205 126.8C193.631 126.8 191.54 124.649 191.54 121.998C191.54 119.349 193.631 117.197 196.205 117.197Z" fill="black" stroke="black" stroke-width="2" stroke-miterlimit="1.5" stroke-linecap="round" stroke-linejoin="round"/>
<path fill-rule="evenodd" clip-rule="evenodd" d="M125.417 117.197C125.417 117.197 123.282 60.7088 78.4282 63.3112C23.1869 66.5173 26.0038 131.768 26.0038 131.768C26.0038 131.768 31.996 178.551 62.8411 186.488L55.9651 207.094C61.1219 234.034 122.583 250.218 128.772 249.761C128.772 249.761 158.477 246.815 166.045 244.065C198.206 232.38 218.649 211.416 218.649 211.416C220.316 205.719 215.157 194.604 211.432 187.768C211.432 187.768 243.79 167.155 241.039 127.642C238.288 88.1283 225.23 65.19 196.205 64.5463C149.689 63.5135 155.084 117.197 155.084 117.197M126.974 3.81567C196.602 3.81567 253.13 58.9182 253.13 126.789C253.13 194.659 196.602 249.761 126.974 249.761C57.3454 249.761 0.816925 194.659 0.816925 126.789C0.816925 58.9182 57.3454 3.81567 126.974 3.81567Z" fill="#39594E"/>
<path d="M125.417 117.197C125.417 117.197 123.282 60.7088 78.4282 63.3112C23.1869 66.5173 26.0038 131.768 26.0038 131.768C26.0038 131.768 31.996 178.551 62.8411 186.488L55.9651 207.094C61.1219 234.034 122.583 250.218 128.772 249.761C128.772 249.761 158.477 246.815 166.045 244.065C198.206 232.38 218.649 211.416 218.649 211.416C220.316 205.719 215.157 194.604 211.432 187.768C211.432 187.768 243.79 167.155 241.039 127.642C238.288 88.1283 225.23 65.19 196.205 64.5463C149.689 63.5135 155.084 117.197 155.084 117.197M126.974 3.81567C196.602 3.81567 253.13 58.9182 253.13 126.789C253.13 194.659 196.602 249.761 126.974 249.761C57.3454 249.761 0.816925 194.659 0.816925 126.789C0.816925 58.9182 57.3454 3.81567 126.974 3.81567Z" stroke="black" stroke-width="2" stroke-miterlimit="1.5" stroke-linecap="round" stroke-linejoin="round"/>
</g>
<defs>
<clipPath id="clip0_120_24">
<rect width="254" height="248" fill="white" transform="translate(0 3)"/>
</clipPath>
</defs>
</svg>
